<?xml version="1.0" encoding="utf-8"?>
<!-- Generator: Adobe Illustrator 18.1.1, SVG Export Plug-In . SVG Version: 6.00 Build 0)  -->
<svg version="1.1" id="Layer_1" xmlns="http://www.w3.org/2000/svg" xmlns:xlink="http://www.w3.org/1999/xlink" x="0px" y="0px"
	 viewBox="0 0 172 80" enable-background="new 0 0 172 80" xml:space="preserve">
<path d="M0,0h14v2.7c0,0.4-0.1,0.7-0.4,0.9C13.3,3.9,13,4,12.6,4H4v72h8.6c0.4,0,0.8,0.1,1,0.4c0.3,0.2,0.4,0.6,0.4,0.9V80H0V0z"/>
<path d="M172,80h-14v-2.7c0-0.4,0.1-0.7,0.4-0.9c0.3-0.2,0.6-0.4,1-0.4h8.6V4h-8.6c-0.4,0-0.8-0.1-1-0.4c-0.3-0.2-0.4-0.6-0.4-0.9V0
	l14,0V80z"/>
<path fill="#C1272D" d="M37,7.6c-1.6,1.8-2.5,4.1-2.5,6.7c0.1,5.6,0.8,11.2,0.8,16.9c0.1,5.2-1.4,10.2-3.4,15
	c-0.6,1.3-1.3,2.6-2,3.9l-2-0.4c-1.8-0.4-3-2.1-2.6-4c0.3-1.6,1.7-2.7,3.3-2.7l0.7,0.1l-1.6-13.8c-0.5-6.1-4.1-11.5-8.7-15
	c-0.8-0.6-1.1-1.2-2.9-1.6V62h12c0.8,3.5,3.4,8.4,6.9,11.1c0.8,0.6,1.5,1.2,2.1,2.1c0.5-0.9,1.2-1.5,2.1-2.1
	c3.5-2.7,6.1-7.7,6.9-11.2H58V12.7c-1.8,0.5-2.1,1-2.9,1.6c-4.7,3.5-8,8.9-8.6,15l-1.7,13.8l0.7-0.1c1.6,0,3,1.1,3.3,2.7
	c0.4,1.8-0.8,3.6-2.7,4l-2,0.4c-0.7-1.3-1.4-2.6-2-3.9c-1.9-4.8-3.5-9.7-3.4-15c0.1-5.6,0.7-11.2,0.8-16.9
	C39.5,11.8,38.5,9.4,37,7.6z M19.5,19.7c3.5,2.6,3.9,5.8,4.4,9.3l1.5,11.2c-1.7,0.9-2.9,2.5-3.4,4.2h-2.5V19.7z M54.5,19.7v24.7
	h-2.6c-0.5-1.8-1.8-3.4-3.5-4.2l1.7-11.3C50.5,25.4,51,22.3,54.5,19.7z M37,42.5c0.9,3,2.2,5.8,3.7,8.4c-1.5,0.4-2.8,1.3-3.7,2.5
	c-0.9-1.2-2.2-2-3.7-2.5C34.8,48.3,36.1,45.5,37,42.5z M19.5,48H22c0.6,1.8,2.4,4.2,4.7,4.9l1.6,0.5c-0.4,1.6-0.7,3.4-0.7,5.1h-8.2
	V48z M51.9,48h2.6v10.5h-8.3c0-1.8-0.2-3.5-0.7-5.1l1.6-0.4C49.5,52.3,51.3,50.4,51.9,48L51.9,48z M31.6,54.3c2,0.3,3.6,2.4,3.6,4.2
	h-4.2C31.1,56.7,31.3,55.6,31.6,54.3z M42.3,54.3c0.4,1.3,0.6,2.4,0.6,4.2h-4.2C38.6,56.7,40.2,54.6,42.3,54.3z M31.4,62h3.8v6.7
	C33.5,66.7,32.1,63.7,31.4,62z M38.8,62h3.7c-0.6,1.8-2,4.8-3.7,6.7V62z"/>
<g>
	<path d="M81.7,24.5c0-2.6,0.7-4.7,2-6.2c1.4-1.5,3.3-2.3,5.8-2.3c1.4,0,2.5,0.2,3.5,0.7c1,0.4,1.8,1,2.4,1.8
		c0.6,0.8,1.1,1.6,1.4,2.7c0.3,1,0.5,2.1,0.5,3.3c0,1.3-0.2,2.5-0.5,3.5c-0.3,1-0.9,1.9-1.5,2.7c-0.7,0.7-1.5,1.3-2.5,1.7
		c-1,0.4-2.1,0.6-3.3,0.6c-1.3,0-2.5-0.2-3.5-0.7c-1-0.4-1.8-1-2.5-1.8c-0.6-0.8-1.1-1.6-1.4-2.7C81.8,26.8,81.7,25.7,81.7,24.5z
		 M84.4,24.5c0,0.8,0.1,1.5,0.3,2.3c0.2,0.8,0.5,1.4,0.9,2c0.4,0.6,0.9,1.1,1.6,1.5c0.7,0.4,1.5,0.5,2.4,0.5c1.7,0,3-0.5,3.9-1.6
		c0.9-1.1,1.3-2.6,1.3-4.7c0-0.8-0.1-1.5-0.3-2.3c-0.2-0.7-0.5-1.4-0.9-2c-0.4-0.6-1-1.1-1.6-1.5c-0.7-0.4-1.5-0.5-2.4-0.5
		c-1.7,0-3,0.5-3.9,1.6C84.8,20.9,84.4,22.4,84.4,24.5z"/>
	<path d="M102,22.1c0-0.2,0-0.4,0-0.8c0-0.3,0-0.6,0-1c0-0.3,0-0.7-0.1-1s-0.1-0.6-0.1-0.8h-2.2v-2.1h4.3l0.3,2.3h0.2
		c0.6-0.8,1.3-1.4,2.2-1.9c0.9-0.5,2-0.8,3.3-0.8c2.3,0,4,0.6,5.2,1.9s1.7,3.4,1.7,6.2c0,1.4-0.2,2.6-0.6,3.7c-0.4,1.1-1,2-1.7,2.8
		c-0.7,0.8-1.6,1.3-2.7,1.7c-1,0.4-2.2,0.6-3.4,0.6c-0.5,0-0.9,0-1.2,0s-0.7-0.1-1-0.1s-0.6-0.1-0.9-0.2c-0.3-0.1-0.6-0.2-0.9-0.3
		v6.8H102V22.1z M109.4,18.5c-0.6,0-1.3,0.1-1.8,0.4c-0.6,0.2-1.1,0.5-1.5,0.9c-0.4,0.4-0.8,0.8-1.1,1.3c-0.3,0.5-0.5,0.9-0.5,1.4
		v7.4c0.5,0.3,1,0.6,1.6,0.8c0.6,0.2,1.4,0.3,2.3,0.3c1.7,0,3.1-0.6,4.1-1.7c1-1.1,1.6-2.8,1.6-4.9c0-1.8-0.4-3.2-1.1-4.2
		C112.3,19,111.1,18.5,109.4,18.5z"/>
	<path d="M135.9,30.6c-0.4,0.3-0.8,0.7-1.4,1c-0.5,0.3-1.1,0.6-1.7,0.8c-0.6,0.2-1.3,0.4-2,0.5c-0.7,0.1-1.4,0.2-2.1,0.2
		c-1.3,0-2.4-0.2-3.4-0.6c-1-0.4-1.8-1-2.5-1.7c-0.7-0.7-1.2-1.6-1.5-2.7c-0.3-1-0.5-2.2-0.5-3.5c0-1.4,0.2-2.6,0.6-3.6
		c0.4-1.1,0.9-1.9,1.6-2.7c0.7-0.7,1.6-1.3,2.6-1.6c1-0.4,2.1-0.6,3.4-0.6c0.9,0,1.8,0.1,2.7,0.4c0.9,0.2,1.7,0.7,2.3,1.3
		c0.7,0.7,1.2,1.6,1.6,2.7c0.4,1.2,0.5,2.6,0.4,4.5h-12.5c0,1.9,0.5,3.4,1.6,4.3c1,1,2.4,1.4,4.2,1.4c0.6,0,1.2-0.1,1.7-0.2
		c0.6-0.1,1.1-0.3,1.6-0.5c0.5-0.2,1-0.4,1.4-0.6c0.4-0.2,0.7-0.5,0.9-0.6L135.9,30.6z M129.1,18.2c-0.7,0-1.4,0.1-2,0.2
		c-0.6,0.2-1.2,0.4-1.7,0.8s-0.9,0.8-1.2,1.4c-0.3,0.6-0.5,1.3-0.6,2.1h10c-0.1-1.4-0.6-2.5-1.4-3.3
		C131.5,18.6,130.4,18.2,129.1,18.2z"/>
	<path d="M141,22.1c0-0.2,0-0.4,0-0.8c0-0.3,0-0.6,0-1c0-0.3,0-0.7-0.1-1c0-0.3-0.1-0.6-0.1-0.8h-2.2v-2.1h4.3l0.3,2.6h0.2
		c0.2-0.4,0.5-0.7,0.9-1.1c0.4-0.4,0.8-0.7,1.2-1c0.5-0.3,1-0.5,1.6-0.7c0.6-0.2,1.2-0.3,1.8-0.3c1,0,1.9,0.1,2.6,0.3
		c0.8,0.2,1.4,0.6,1.9,1.1c0.5,0.5,0.9,1.3,1.1,2.2c0.3,0.9,0.4,2.1,0.4,3.6v9.3h-2.6v-8.8c0-1.8-0.3-3.1-0.9-4
		c-0.6-0.9-1.6-1.4-3.2-1.4c-0.6,0-1.1,0.1-1.6,0.3c-0.5,0.2-1,0.5-1.4,0.9c-0.4,0.4-0.8,0.8-1.1,1.3c-0.3,0.5-0.6,1-0.7,1.5v10.1
		H141V22.1z"/>
	<path d="M82.4,64.5v-2.2h4.4V50.5h-4.4v-2.2h6l0.5,2.1h0.2c0.7-0.7,1.6-1.2,2.5-1.7c0.9-0.5,2-0.7,3.2-0.7c0.7,0,1.3,0.1,1.8,0.4
		c0.4,0.3,0.8,0.7,1,1.2c0.2,0.5,0.4,1.2,0.5,2c0.1,0.8,0.1,1.6,0.1,2.6l-2.3,0c0-1.4-0.1-2.4-0.4-3c-0.3-0.6-0.8-1-1.5-1
		c-0.7,0-1.3,0.1-1.8,0.3s-1,0.4-1.4,0.7c-0.4,0.3-0.7,0.6-1,0.8c-0.3,0.3-0.5,0.5-0.6,0.7v9.5h6.2v2.2H82.4z"/>
	<path d="M102.9,49.6c0.9-0.5,2-0.9,3.1-1.2c1.2-0.2,2.3-0.4,3.4-0.4c1.1,0,2,0.2,2.7,0.5c0.7,0.3,1.2,0.8,1.6,1.3
		c0.4,0.5,0.7,1.2,0.8,1.9c0.1,0.7,0.2,1.4,0.2,2.1c0,0.8,0,1.7-0.1,2.6c0,0.9-0.1,1.9-0.1,2.8c0,1.1,0.1,2.1,0.2,3.1h2.2v2.1h-4.3
		l-0.3-2.4h-0.2c-0.1,0.2-0.3,0.4-0.6,0.7s-0.6,0.6-1,0.9c-0.4,0.3-0.9,0.5-1.5,0.8c-0.6,0.2-1.3,0.3-2.1,0.3
		c-1.6,0-2.9-0.4-3.8-1.2c-0.9-0.8-1.4-1.9-1.4-3.4c0-1.1,0.2-2,0.7-2.7c0.5-0.7,1.2-1.3,2.1-1.7c0.9-0.4,2-0.6,3.3-0.7
		c1.3-0.1,2.7,0,4.3,0.3c0.1-1,0.1-1.8,0-2.5c-0.1-0.7-0.2-1.2-0.5-1.6c-0.3-0.4-0.6-0.7-1.1-0.8s-1.1-0.2-1.8-0.2
		c-1,0-1.9,0.1-2.8,0.4c-0.9,0.3-1.7,0.5-2.4,0.8L102.9,49.6z M107.7,62.7c0.6,0,1.2-0.1,1.7-0.3s1-0.4,1.4-0.7c0.4-0.3,0.7-0.6,1-1
		s0.5-0.7,0.6-1v-2.3c-1.1-0.2-2.2-0.3-3.1-0.3c-0.9,0-1.8,0.1-2.5,0.3c-0.7,0.2-1.2,0.5-1.6,1c-0.4,0.4-0.6,1-0.6,1.7
		c0,0.7,0.2,1.3,0.7,1.9C105.7,62.4,106.5,62.7,107.7,62.7z"/>
	<path d="M129.9,41.9h5.3V59c0,0.2,0,0.4,0,0.7c0,0.3,0,0.6,0.1,0.9c0,0.3,0.1,0.6,0.1,1c0,0.3,0.1,0.6,0.1,0.8h2.2v2.1h-4.3L133,62
		h-0.1c-0.5,0.8-1.2,1.5-2.1,2.1c-0.9,0.5-2,0.8-3.2,0.8c-2.4,0-4.2-0.7-5.4-2.1c-1.1-1.4-1.7-3.5-1.7-6.4c0-1.4,0.2-2.6,0.6-3.6
		c0.4-1,0.9-1.9,1.7-2.6s1.6-1.2,2.6-1.6c1-0.4,2.1-0.5,3.4-0.5c0.5,0,0.9,0,1.2,0s0.7,0.1,1,0.1c0.3,0,0.6,0.1,0.9,0.2
		s0.6,0.2,0.9,0.2v-4.6h-2.7V41.9z M128,62.8c1.3,0,2.3-0.3,3.1-1s1.3-1.7,1.5-3.1v-7.5c-0.5-0.3-1-0.6-1.6-0.7
		c-0.6-0.2-1.4-0.2-2.3-0.2c-1.7,0-3.1,0.5-4.1,1.5s-1.5,2.6-1.5,4.7c0,0.9,0.1,1.7,0.2,2.5c0.2,0.8,0.4,1.4,0.8,2
		c0.4,0.6,0.9,1,1.5,1.3C126.3,62.6,127.1,62.8,128,62.8z"/>
	<path d="M141.9,49.6c0.9-0.5,2-0.9,3.1-1.2c1.2-0.2,2.3-0.4,3.4-0.4c1.1,0,2,0.2,2.7,0.5c0.7,0.3,1.2,0.8,1.6,1.3
		c0.4,0.5,0.7,1.2,0.8,1.9c0.1,0.7,0.2,1.4,0.2,2.1c0,0.8,0,1.7-0.1,2.6c0,0.9-0.1,1.9-0.1,2.8c0,1.1,0.1,2.1,0.2,3.1h2.2v2.1h-4.3
		l-0.3-2.4h-0.2c-0.1,0.2-0.3,0.4-0.6,0.7s-0.6,0.6-1,0.9c-0.4,0.3-0.9,0.5-1.5,0.8c-0.6,0.2-1.3,0.3-2.1,0.3
		c-1.6,0-2.9-0.4-3.8-1.2c-0.9-0.8-1.4-1.9-1.4-3.4c0-1.1,0.2-2,0.7-2.7c0.5-0.7,1.2-1.3,2.1-1.7c0.9-0.4,2-0.6,3.3-0.7
		c1.3-0.1,2.7,0,4.3,0.3c0.1-1,0.1-1.8,0-2.5c-0.1-0.7-0.2-1.2-0.5-1.6c-0.3-0.4-0.6-0.7-1.1-0.8s-1.1-0.2-1.8-0.2
		c-1,0-1.9,0.1-2.8,0.4c-0.9,0.3-1.7,0.5-2.4,0.8L141.9,49.6z M146.7,62.7c0.6,0,1.2-0.1,1.7-0.3s1-0.4,1.4-0.7c0.4-0.3,0.7-0.6,1-1
		s0.5-0.7,0.6-1v-2.3c-1.1-0.2-2.2-0.3-3.1-0.3c-0.9,0-1.8,0.1-2.5,0.3c-0.7,0.2-1.2,0.5-1.6,1c-0.4,0.4-0.6,1-0.6,1.7
		c0,0.7,0.2,1.3,0.7,1.9C144.8,62.4,145.6,62.7,146.7,62.7z"/>
</g>
<rect x="69.5" y="4" width="3" height="74"/>
</svg>
